<?xml version="1.0" encoding="UTF-8"?>
<svg width="256" height="256" viewBox="0 0 3125 3125" xmlns="http://www.w3.org/2000/svg" preserveAspectRatio="xMidYMid meet">
  <g transform="translate(0,3125) scale(0.1,-0.1)" fill="#8f9797" stroke="none">
    <path d="M15275 26143c-735-43-1338-157-1959-370-1544-530-2849-1569-3710-2953-237-380-461-832-608-1223-304-814-451-1622-451-2487 0-346 10-533 44-825 168-1456 773-2800 1754-3895 127-142 448-461 575-572 956-834 2039-1376 3250-1627 410-85 916-140 1278-141l142 0 0 7050 0 7050-132-2c-73-1-155-3-183-5z"/>
    <path d="M19320 24978c-823-559-1466-1204-1995-2003-1027-1551-1393-3447-1020-5290 246-1219 825-2367 1661-3295 222-247 535-546 784-749 201-165 625-471 652-471 5 0 50 28 101 62 1254 838 2212 2058 2722 3468 226 624 358 1262 405 1950 13 191 13 719 0 912-15 211-44 474-74 661-292 1809-1264 3411-2741 4522-150 113-401 285-413 284-4 0-41-23-82-51z"/>
    <path d="M7850 10926c0-204 0-204 28-257 34-66 87-105 165-121 77-16 156 0 210 43l38 31 22-20c61-55 159-75 248-49 68 20 120 63 150 124 22 45 24 62 27 251l4 202-76 0-76 0 0-189c0-174-2-190-20-214-29-37-83-52-131-38-63 19-69 41-69 256l0 185-75 0-75 0 0-182c0-164-2-186-20-215-38-64-145-66-187-5-15 23-18 53-21 215l-4 187-69 0-69 0 0-204z"/>
    <path d="M21084 10816c-3-7-3-386-1-842 3-732 6-837 21-898 48-198 163-324 359-390 133-45 97-44 2481-51l2259-7-6 289c-4 170-13 335-22 403-42 305-131 518-277 662-191 188-531 249-830 147-241-82-506-292-679-539-35-51-69-99-76-108-10-14-12 39-13 256l0 272-149 0-149 0-5-367c-5-395-10-440-61-542-26-50-74-99-129-128-29-16-73-18-461-21-409-3-428-2-421 15 53 126 65 267 65 786l0 428-152-3-153-3-5-500c-6-543-7-551-64-634-65-94-141-106-609-96-378 7-430 14-502 63-50 35-91 114-105 202-6 40-10 367-10 843l0 777-150 0c-118 0-152-3-156-14zm4365-927c137-31 269-144 339-290 81-165 117-394 96-598l-7-61-799 0-799 0 6 23c14 47 114 245 160 317 198 309 467 532 725 599 83 22 209 26 279 10z"/>
    <path d="M13770 9735l0-1085 165 0 165 0 0 1085 0 1085-165 0-165 0 0-1085z"/>
    <path d="M18060 10033c0-475 4-824 10-878 35-305 160-470 388-511 62-11 286-13 1145-14l1067 0 0 155 0 155-497 2-498 3-41 61c-22 33-51 94-65 135-21 66-24 91-23 234 0 147 2 167 27 242 53 159 153 265 282 298 218 56 430-53 485-249 7-25 16-46 19-46 4 0 34 9 67 19 32 11 98 32 146 46l86 26-8 29c-37 129-181 290-321 359-133 65-225 84-388 79-160-5-250-30-367-103-82-51-194-166-243-249-89-149-135-381-113-567 11-93 60-267 82-295 6-6 7-14 3-17-11-11-576-8-659 4-162 22-238 95-264 250-6 40-10 355-10 842l0 777-155 0-155 0 0-787z"/>
    <path d="M22746 10797c-49-27-86-93-86-151 0-55 36-125 79-153 47-32 135-32 181 0 60 40 75 70 75 151 0 65-3 77-29 110-51 68-145 86-220 43z"/>
    <path d="M6964 10791c-57-35-79-78-79-153 0-74 16-105 75-145 62-43 177-24 219 36 31 43 43 105 31 151-12 46-51 95-91 115-40 21-117 19-155-4z"/>
    <path d="M11549 10787c-54-37-79-82-79-145 0-103 55-164 155-170 50-3 66 0 95 20 19 13 45 39 58 58 20 30 23 44 20 97-4 70-23 103-78 141-46 31-124 31-171-1z"/>
    <path d="M13178 9968l-3-843-22-41c-28-53-90-108-139-124-22-8-66-14-99-14l-60-1-7 145c-9 210-41 342-123 515-114 238-326 452-571 573-94 47-240 95-344 113-95 16-301 16-405 0-182-29-398-121-546-233-160-120-311-309-389-485-22-48-38-88-37-90 2-1 61-24 132-52 72-27 138-52 147-56 13-5 24 10 56 77 167 356 551 572 936 528 374-43 671-291 791-660 24-72 28-107 33-233l4-147-1173 2-1174 3 0 677 0 678-162 0-163 0 0-840c0-570-4-856-11-892-29-138-143-296-270-371-98-58-175-78-321-84l-128-6 0-143 0-144 130 0c81 0 161 6 208 16 271 56 502 231 623 473 43 86 79 211 79 273l0 38 1408 1c774 0 1416 2 1427 4 184 29 352 148 428 305 68 137 67 122 67 1048l0 832-160 0-159 0-3-842z"/>
    <path d="M16611 10529c-148-31-179-251-46-326 149-84 310 77 234 234-35 72-109 108-188 92z"/>
    <path d="M16009 10507c-101-68-105-229-8-298 44-31 124-37 174-13 86 40 121 162 72 249-33 59-78 85-147 85-43 0-65-6-91-23z"/>
    <path d="M7850 10370l0-70 439 0c495 0 447-9 446 85l0 50-442 3-443 2 0-70z"/>
    <path d="M6931 10350c-234-33-463-186-584-391-175-297-163-695 28-961 19-26 35-50 35-53 0-3-237-5-527-3-511 3-529 4-573 24-25 11-62 39-82 62-68 75-68 78-68 709l0 563-155 0-155 0 0-596c0-657 0-659 63-779 47-90 155-194 247-238 41-19 99-40 128-46 37-8 563-11 1770-11 1891 0 1766-4 1902 62 81 40 193 149 237 234 62 116 63 128 63 782l0 592-160 0-160 0 0-582 0-583-24-50c-13-28-38-64-57-79-74-63-54-61-641-64-335-2-538 1-538 7 0 5 16 33 36 62 49 72 90 165 117 263 18 68 22 106 21 231-1 133-4 160-28 239-15 50-48 131-73 180-39 75-65 109-148 192-90 91-110 106-205 152-58 28-134 57-170 66-85 20-218 27-299 16zm201-301c250-52 433-310 415-584-15-216-150-413-334-486-48-20-76-24-169-24-110 0-111 0-195 42-198 99-308 293-297 528 16 340 287 585 580 524z"/>
    <path d="M15027 10174c-10-11-8-540 3-682 37-472 254-727 700-824 90-20 133-21 775-25 740-5 762-3 881 51 76 35 149 111 189 199 58 127 58 125 62 730l4 557-150 0-151 0 0-422c0-645-12-707-145-773l-60-30-645 0c-584 0-652 2-721 18-218 51-353 177-416 387-13 45-17 125-22 435l-6 380-146 3c-80 1-148-1-152-4z"/>
    <path d="M8185 8137c-73-34-118-126-100-207 18-82 124-145 204-121 144 43 176 227 55 310-42 29-117 37-159 18z"/>
    <path d="M8624 8136c-105-46-135-185-59-273 67-78 170-80 246-4 128 127-22 348-187 277z"/>
    <path d="M20050 7460l0-400-72 60c-124 104-245 150-398 150-265-1-507-153-625-394-67-137-80-195-80-366 1-136 3-151 32-235 103-300 342-487 638-502 171-9 323 44 443 153 33 30 63 54 66 54 3 0 6-40 6-90l0-90 125 0 125 0 0 1030 0 1030-130 0-130 0 0-400zm-287-478c91-42 182-133 226-225 80-168 72-359-23-520-34-60-140-155-201-183-250-113-525 29-609 315-18 62-21 212-5 281 26 111 110 236 206 301 76 53 136 69 243 66 83-2 104-7 163-35z"/>
    <path d="M25015 7730c-106-53-120-203-25-270 65-46 156-35 209 25 67 76 43 196-49 243-55 27-83 28-135 2z"/>
    <path d="M4930 6977c0-821-1-812 58-921 15-28 54-79 87-112 102-104 195-139 398-149l127-7 0 146 0 146-115 0c-75 0-127 5-148 14-40 17-83 60-108 108-18 36-19 70-19 783l0 745-140 0-140 0 0-753z"/>
    <path d="M16970 6765l0-965 130 0 130 0 0 965 0 965-130 0-130 0 0-965z"/>
    <path d="M5730 6760l0-960 140 0 140 0 0 233 0 232 120 120c65 65 121 117 123 115 2-3 86-124 186-270 101-146 204-287 230-313 28-30 77-63 127-88 67-34 96-42 180-51 55-7 108-9 117-5 15 6 17 24 17 147l0 140-75 0c-82 0-132 18-171 62-19 20-192 267-354 501l-53 78 209 202c115 111 250 241 299 289l90 88-211 0-211 0-305-300c-169-165-309-300-312-300-3 0-6 234-6 520l0 520-140 0-140 0 0-960z"/>
    <path d="M7227 7713c-4-3-7-442-7-975l0-968 139 0 140 0 3 478 3 477 29 62c53 115 150 180 281 190 128 10 236-40 291-133 51-86 54-121 54-617l0-458 135 3 135 3 0 490c0 454-1 496-19 566-42 165-144 299-275 360-181 85-413 70-572-35-30-20-56-36-59-36-3 0-5 135-5 300l0 300-133 0c-74 0-137-3-140-7z"/>
    <path d="M16078 7710c-81-14-152-38-201-70-143-91-219-239-234-457l-6-93-94 0-93 0 0-135 0-135 95 0 95 0 0-525 0-525 140 0 140 0 0 525 0 525 155 0 155 0 0 135 0 135-155 0-155 0 0 64c0 90 33 192 76 233 38 35 101 53 189 53l55 0 0 140 0 140-57-1c-32-1-79-5-105-9z"/>
    <path d="M3881 7686c-13-32-694-1777-720-1844l-21-53 156 3 155 3 102 248 101 247 375-2 374-3 101-247 100-248 159 0c147 0 159 1 154 18-5 17-670 1763-706 1852l-17 45-152 3-152 3-9-25zm294-754c70-194 125-355 123-357-9-10-538-18-538-9 0 5 59 169 130 364 72 195 133 362 136 370 5 13 6 13 14 0 4-8 65-174 135-368z"/>
    <path d="M23358 7383c-3-169 12-149-120-152l-73-1 0-125 0-125 98 0 97 0 0-377c0-419 5-457 63-567 82-155 227-236 424-236l93 0 0 125 0 125-53 0c-68 0-148 24-185 55-17 14-40 46-53 72-24 48-24 52-27 426l-3 377 161 0 161 0-3 126-3 126-141-1c-77-1-148 1-157 5-15 5-17 24-17 150l0 144-130 0-129 0-3-147z"/>
    <path d="M18058 7254c-69-16-138-50-201-98-26-20-49-36-52-36-3 0-5 27-5 60l0 60-125 0-125 0 0-720 0-720 130 0 129 0 3 478 3 477 24 60c52 128 173 207 321 209 146 1 251-64 301-190l24-59 3-487 3-488 129 0 130 0 0 475c0 534-4 572-67 705-45 93-146 199-225 235-120 55-275 70-400 39z"/>
    <path d="M22385 7256c-312-61-478-298-389-558 33-98 141-180 299-227 39-11 147-34 240-50 249-44 325-73 351-136 58-139-97-275-313-275-123 0-245 44-310 112-33 34-72 110-73 141 0 15-13 17-136 17l-136 0 7-42c35-211 172-362 400-439 63-22 87-24 240-24 160 0 175 2 248 28 244 86 372 276 337 501-34 224-166 311-575 381-164 28-268 56-302 80-28 20-42 70-32 109 12 42 63 91 123 118 45 20 67 23 176 23 117 0 128-2 176-27 62-33 116-93 133-148l12-40 135 0c124 0 135 1 131 18-3 9-8 35-12 57-3 22-22 72-40 110-59 124-182 219-337 261-77 21-269 26-353 10z"/>
    <path d="M24592 7254c-71-19-154-60-201-101-22-18-42-33-45-33-3 0-6 24-6 54l0 55-102 3c-57 2-113 2-125 0l-23-3 0-715 0-714 130 0 130 0 0 413c0 226 5 443 10 481 27 184 158 297 362 313l78 6 0 128 0 129-77-1c-43 0-102-7-131-15z"/>
    <path d="M26000 7264c-226-44-423-197-525-409-57-118-70-182-70-345 0-162 14-223 81-350 95-181 263-314 464-367 99-26 291-23 395 6 149 42 277 129 360 246 46 63 88 147 100 198l7 27-139 0-138 0-32-54c-42-70-100-121-182-160-63-29-72-31-187-31-118 0-121 0-195 37-123 61-205 154-249 283-36 106-102 95 566 95l587 0-6 103c-18 329-224 605-519 699-62 19-260 33-318 22zm276-268c31-14 78-42 105-62 62-45 159-191 159-239 0-13-60-15-425-15-349 0-425 2-425 13 0 33 67 144 119 197 57 58 148 112 219 130 65 16 184 5 248-24z"/>
    <path d="M27351 7254c-169-34-302-127-364-253-30-61-32-72-32-171 0-89 3-112 23-151 67-136 212-207 533-259 285-46 359-86 359-192 0-86-51-147-157-189-47-18-78-23-163-23-123-1-192 17-266 67-52 36-114 125-114 164 0 23-1 23-135 23-154 0-145 7-119-94 69-269 330-430 669-413 248 13 419 106 502 275 38 75 38 77 38 197 0 112-2 124-29 179-72 147-192 209-517 266-210 37-253 48-301 71-92 47-91 141 4 209 57 42 127 60 228 60 99 0 165-17 222-56 40-28 98-114 98-146 0-16 13-18 136-18l137 0-7 43c-31 199-167 343-381 401-87 24-273 29-364 10z"/>
    <path d="M9149 7240c-283-45-506-251-591-546-19-65-22-103-22-214 0-126 2-141 33-230 72-212 192-349 386-441 265-127 586-73 797 133 82 81 134 161 175 270 159 423-74 904-491 1012-74 20-215 27-287 16zm166-260c258-42 435-333 370-608-79-334-433-478-686-278-197 155-242 463-101 681 68 106 175 183 284 204 60 12 65 12 133 1z"/>
    <path d="M10648 7240c-83-15-148-41-215-86-36-24-67-44-69-44-2 0-4 23-4 50l0 50-135 0-135 0 0-720 0-720 140 0 140 0 0 463c0 511 1 521 63 614 36 54 108 107 170 125 23 7 74 12 113 12 125-1 222-63 272-174 23-48 27-74 34-230 9-192 25-291 62-381 79-196 245-356 434-419 80-26 212-43 277-35 125 16 252 71 342 150 28 25 54 45 57 45 3 0 6-36 6-80l0-80 135 0 135 0 0 715 0 715-135 0-135 0 0-80c0-44-4-80-8-80-5 0-21 14-37 30-76 79-232 151-361 165-174 19-385-55-529-186l-56-52-32 39c-74 90-158 146-267 178-67 20-198 28-262 16zm1187-275c170-45 302-191 342-379 51-244-103-499-341-562-140-38-289 9-400 126-183 192-180 506 9 696 112 113 250 155 390 119z"/>
    <path d="M14561 7239c-442-74-718-552-571-990 38-115 86-195 164-278 151-158 312-225 541-225 238 0 401 71 543 239 43 50 116 185 128 238l6 27-144 0-145 0-37-59c-45-74-93-116-174-154-53-24-81-31-158-35-112-6-197 17-284 77-93 63-180 198-191 296l-4 30 584 3 584 2-7 83c-20 234-91 402-230 542-162 164-388 240-605 204zm274-288c82-38 173-123 214-200 53-99 88-91-379-91-469 0-433-9-375 95 36 64 123 153 179 182 119 62 248 67 361 14z"/>
    <path d="M20550 6758c0-539 3-569 65-696 107-216 336-325 594-281 79 14 193 64 243 107 19 18 38 32 42 32 3 0 6-27 6-60l0-60 125 0 125 0 0 720 0 720-130 0-129 0-3-477-3-478-24-60c-52-128-173-207-321-208-106-1-171 23-235 87-91 93-89 79-93 644l-3 492-129 0-130 0 0-482z"/>
    <path d="M24950 6520l0-720 135 0 135 0 0 720 0 720-135 0-135 0 0-720z"/>
    <path d="M13548 6738c-3-475-3-484-25-531-37-79-78-123-149-158-56-28-77-33-142-33-48 0-97 7-129 18-69 23-144 91-174 158l-24 53-3 483-3 482-140 0-140 0 3-492 3-493 28-82c84-250 297-397 577-396 115 0 201 22 272 69 21 13 40 24 43 24 11 0 4-188-9-238-41-152-147-232-309-232-40 0-97 7-126 16-70 20-141 86-172 159l-24 55-137 0c-157 0-150 5-122-91 58-196 211-343 414-396 86-22 253-22 340 1 161 43 299 152 364 289 66 137 66 125 66 1015l0 802-140 0-139 0-3-482z"/>
  </g>
</svg>